<mxfile host="app.diagrams.net" modified="2023-04-08T12:05:12.536Z" agent="Mozilla/5.0 (Macintosh; Intel Mac OS X 10_15_7) AppleWebKit/537.36 (KHTML, like Gecko) Chrome/110.0.0.0 Safari/537.36" etag="PL-rwghHsMTHtg-t6kQH" version="21.1.4" type="device">
  <diagram id="y0yoUt8PDUnWxU_aTR9k" name="Page-1">
    <mxGraphModel dx="1194" dy="591" grid="1" gridSize="10" guides="1" tooltips="1" connect="1" arrows="1" fold="1" page="1" pageScale="1" pageWidth="850" pageHeight="1100" math="0" shadow="0">
      <root>
        <mxCell id="0" />
        <mxCell id="1" parent="0" />
        <mxCell id="tfIvSZz7BxdLT6BHfepm-10" value="AWS Account" style="points=[[0,0],[0.25,0],[0.5,0],[0.75,0],[1,0],[1,0.25],[1,0.5],[1,0.75],[1,1],[0.75,1],[0.5,1],[0.25,1],[0,1],[0,0.75],[0,0.5],[0,0.25]];outlineConnect=0;gradientColor=none;html=1;whiteSpace=wrap;fontSize=12;fontStyle=0;container=1;pointerEvents=0;collapsible=0;recursiveResize=0;shape=mxgraph.aws4.group;grIcon=mxgraph.aws4.group_account;strokeColor=#CD2264;fillColor=none;verticalAlign=top;align=left;spacingLeft=30;fontColor=#CD2264;dashed=0;" parent="1" vertex="1">
          <mxGeometry x="230" y="110" width="850" height="690" as="geometry" />
        </mxCell>
        <mxCell id="tfIvSZz7BxdLT6BHfepm-2" value="Region" style="points=[[0,0],[0.25,0],[0.5,0],[0.75,0],[1,0],[1,0.25],[1,0.5],[1,0.75],[1,1],[0.75,1],[0.5,1],[0.25,1],[0,1],[0,0.75],[0,0.5],[0,0.25]];outlineConnect=0;gradientColor=none;html=1;whiteSpace=wrap;fontSize=12;fontStyle=0;container=1;pointerEvents=0;collapsible=0;recursiveResize=0;shape=mxgraph.aws4.group;grIcon=mxgraph.aws4.group_region;strokeColor=#147EBA;fillColor=none;verticalAlign=top;align=left;spacingLeft=30;fontColor=#147EBA;dashed=1;" parent="1" vertex="1">
          <mxGeometry x="270" y="180" width="770" height="600" as="geometry" />
        </mxCell>
        <mxCell id="tfIvSZz7BxdLT6BHfepm-1" value="VPC" style="sketch=0;outlineConnect=0;gradientColor=none;html=1;whiteSpace=wrap;fontSize=12;fontStyle=0;shape=mxgraph.aws4.group;grIcon=mxgraph.aws4.group_vpc;strokeColor=#879196;fillColor=none;verticalAlign=top;align=left;spacingLeft=30;fontColor=#879196;dashed=0;" parent="tfIvSZz7BxdLT6BHfepm-2" vertex="1">
          <mxGeometry x="10" y="90" width="290" height="260" as="geometry" />
        </mxCell>
        <mxCell id="tfIvSZz7BxdLT6BHfepm-13" value="Public subnet" style="points=[[0,0],[0.25,0],[0.5,0],[0.75,0],[1,0],[1,0.25],[1,0.5],[1,0.75],[1,1],[0.75,1],[0.5,1],[0.25,1],[0,1],[0,0.75],[0,0.5],[0,0.25]];outlineConnect=0;gradientColor=none;html=1;whiteSpace=wrap;fontSize=12;fontStyle=0;container=1;pointerEvents=0;collapsible=0;recursiveResize=0;shape=mxgraph.aws4.group;grIcon=mxgraph.aws4.group_security_group;grStroke=0;strokeColor=#248814;fillColor=#E9F3E6;verticalAlign=top;align=left;spacingLeft=30;fontColor=#248814;dashed=0;" parent="tfIvSZz7BxdLT6BHfepm-2" vertex="1">
          <mxGeometry x="40" y="130" width="190" height="170" as="geometry" />
        </mxCell>
        <mxCell id="tfIvSZz7BxdLT6BHfepm-15" value="Aurora Postgres" style="sketch=0;points=[[0,0,0],[0.25,0,0],[0.5,0,0],[0.75,0,0],[1,0,0],[0,1,0],[0.25,1,0],[0.5,1,0],[0.75,1,0],[1,1,0],[0,0.25,0],[0,0.5,0],[0,0.75,0],[1,0.25,0],[1,0.5,0],[1,0.75,0]];outlineConnect=0;fontColor=#232F3E;gradientColor=#4D72F3;gradientDirection=north;fillColor=#3334B9;strokeColor=#ffffff;dashed=0;verticalLabelPosition=bottom;verticalAlign=top;align=center;html=1;fontSize=12;fontStyle=0;aspect=fixed;shape=mxgraph.aws4.resourceIcon;resIcon=mxgraph.aws4.rds;" parent="tfIvSZz7BxdLT6BHfepm-13" vertex="1">
          <mxGeometry x="51" y="46" width="78" height="78" as="geometry" />
        </mxCell>
        <mxCell id="tfIvSZz7BxdLT6BHfepm-17" style="edgeStyle=orthogonalEdgeStyle;rounded=0;orthogonalLoop=1;jettySize=auto;html=1;" parent="tfIvSZz7BxdLT6BHfepm-2" source="tfIvSZz7BxdLT6BHfepm-8" target="tfIvSZz7BxdLT6BHfepm-15" edge="1">
          <mxGeometry relative="1" as="geometry" />
        </mxCell>
        <mxCell id="tfIvSZz7BxdLT6BHfepm-8" value="S3 Gateway&lt;br&gt;Endpoint" style="sketch=0;outlineConnect=0;fontColor=#232F3E;gradientColor=none;fillColor=#4D27AA;strokeColor=none;dashed=0;verticalLabelPosition=bottom;verticalAlign=top;align=center;html=1;fontSize=12;fontStyle=0;aspect=fixed;pointerEvents=1;shape=mxgraph.aws4.endpoint;" parent="tfIvSZz7BxdLT6BHfepm-2" vertex="1">
          <mxGeometry x="260" y="175" width="80" height="80" as="geometry" />
        </mxCell>
        <mxCell id="tfIvSZz7BxdLT6BHfepm-16" style="edgeStyle=orthogonalEdgeStyle;rounded=0;orthogonalLoop=1;jettySize=auto;html=1;" parent="tfIvSZz7BxdLT6BHfepm-2" source="tfIvSZz7BxdLT6BHfepm-7" target="tfIvSZz7BxdLT6BHfepm-8" edge="1">
          <mxGeometry relative="1" as="geometry">
            <mxPoint x="370" y="400" as="targetPoint" />
            <Array as="points">
              <mxPoint x="410" y="200" />
              <mxPoint x="410" y="200" />
            </Array>
          </mxGeometry>
        </mxCell>
        <mxCell id="tfIvSZz7BxdLT6BHfepm-33" style="edgeStyle=none;rounded=0;orthogonalLoop=1;jettySize=auto;html=1;exitX=0.5;exitY=0;exitDx=0;exitDy=0;exitPerimeter=0;" parent="tfIvSZz7BxdLT6BHfepm-2" source="tfIvSZz7BxdLT6BHfepm-32" target="tfIvSZz7BxdLT6BHfepm-7" edge="1">
          <mxGeometry relative="1" as="geometry" />
        </mxCell>
        <mxCell id="tfIvSZz7BxdLT6BHfepm-7" value="Glue Crawler (JDBC)" style="sketch=0;outlineConnect=0;fontColor=#232F3E;gradientColor=none;fillColor=#4D27AA;strokeColor=none;dashed=0;verticalLabelPosition=bottom;verticalAlign=top;align=center;html=1;fontSize=12;fontStyle=0;aspect=fixed;pointerEvents=1;shape=mxgraph.aws4.glue_crawlers;" parent="tfIvSZz7BxdLT6BHfepm-2" vertex="1">
          <mxGeometry x="434" y="177" width="78" height="78" as="geometry" />
        </mxCell>
        <mxCell id="tfIvSZz7BxdLT6BHfepm-9" value="glue-datasource-policy" style="sketch=0;outlineConnect=0;fontColor=#232F3E;gradientColor=none;fillColor=#BF0816;strokeColor=none;dashed=0;verticalLabelPosition=bottom;verticalAlign=top;align=center;html=1;fontSize=12;fontStyle=0;aspect=fixed;pointerEvents=1;shape=mxgraph.aws4.role;" parent="tfIvSZz7BxdLT6BHfepm-2" vertex="1">
          <mxGeometry x="370" y="120" width="53.18" height="30" as="geometry" />
        </mxCell>
        <mxCell id="tfIvSZz7BxdLT6BHfepm-29" value="" style="edgeStyle=none;rounded=0;orthogonalLoop=1;jettySize=auto;html=1;" parent="tfIvSZz7BxdLT6BHfepm-2" source="tfIvSZz7BxdLT6BHfepm-24" target="tfIvSZz7BxdLT6BHfepm-6" edge="1">
          <mxGeometry relative="1" as="geometry">
            <Array as="points" />
          </mxGeometry>
        </mxCell>
        <mxCell id="tfIvSZz7BxdLT6BHfepm-6" value="Glue Catalog" style="sketch=0;outlineConnect=0;fontColor=#232F3E;gradientColor=none;fillColor=#4D27AA;strokeColor=none;dashed=0;verticalLabelPosition=bottom;verticalAlign=top;align=center;html=1;fontSize=12;fontStyle=0;aspect=fixed;pointerEvents=1;shape=mxgraph.aws4.glue_data_catalog;" parent="tfIvSZz7BxdLT6BHfepm-2" vertex="1">
          <mxGeometry x="634" y="168.42" width="55" height="59.58" as="geometry" />
        </mxCell>
        <mxCell id="tfIvSZz7BxdLT6BHfepm-18" style="edgeStyle=orthogonalEdgeStyle;rounded=0;orthogonalLoop=1;jettySize=auto;html=1;" parent="tfIvSZz7BxdLT6BHfepm-2" source="tfIvSZz7BxdLT6BHfepm-7" target="tfIvSZz7BxdLT6BHfepm-6" edge="1">
          <mxGeometry relative="1" as="geometry">
            <Array as="points">
              <mxPoint x="580" y="200" />
              <mxPoint x="580" y="200" />
            </Array>
          </mxGeometry>
        </mxCell>
        <mxCell id="tfIvSZz7BxdLT6BHfepm-22" value="ETL bucket" style="sketch=0;outlineConnect=0;fontColor=#232F3E;gradientColor=none;fillColor=#3F8624;strokeColor=none;dashed=0;verticalLabelPosition=bottom;verticalAlign=top;align=center;html=1;fontSize=12;fontStyle=0;aspect=fixed;pointerEvents=1;shape=mxgraph.aws4.bucket_with_objects;" parent="tfIvSZz7BxdLT6BHfepm-2" vertex="1">
          <mxGeometry x="629" y="510" width="57.69" height="60" as="geometry" />
        </mxCell>
        <mxCell id="tfIvSZz7BxdLT6BHfepm-30" style="edgeStyle=none;rounded=0;orthogonalLoop=1;jettySize=auto;html=1;" parent="tfIvSZz7BxdLT6BHfepm-2" source="tfIvSZz7BxdLT6BHfepm-24" target="tfIvSZz7BxdLT6BHfepm-22" edge="1">
          <mxGeometry relative="1" as="geometry" />
        </mxCell>
        <mxCell id="tfIvSZz7BxdLT6BHfepm-24" value="PySpark Glue Job" style="sketch=0;points=[[0,0,0],[0.25,0,0],[0.5,0,0],[0.75,0,0],[1,0,0],[0,1,0],[0.25,1,0],[0.5,1,0],[0.75,1,0],[1,1,0],[0,0.25,0],[0,0.5,0],[0,0.75,0],[1,0.25,0],[1,0.5,0],[1,0.75,0]];outlineConnect=0;fontColor=#232F3E;gradientColor=#945DF2;gradientDirection=north;fillColor=#5A30B5;strokeColor=#ffffff;dashed=0;verticalLabelPosition=bottom;verticalAlign=top;align=center;html=1;fontSize=12;fontStyle=0;aspect=fixed;shape=mxgraph.aws4.resourceIcon;resIcon=mxgraph.aws4.glue;" parent="tfIvSZz7BxdLT6BHfepm-2" vertex="1">
          <mxGeometry x="629" y="340" width="60" height="60" as="geometry" />
        </mxCell>
        <mxCell id="tfIvSZz7BxdLT6BHfepm-32" value="Secrets Manager" style="sketch=0;points=[[0,0,0],[0.25,0,0],[0.5,0,0],[0.75,0,0],[1,0,0],[0,1,0],[0.25,1,0],[0.5,1,0],[0.75,1,0],[1,1,0],[0,0.25,0],[0,0.5,0],[0,0.75,0],[1,0.25,0],[1,0.5,0],[1,0.75,0]];outlineConnect=0;fontColor=#232F3E;gradientColor=#F54749;gradientDirection=north;fillColor=#C7131F;strokeColor=#ffffff;dashed=0;verticalLabelPosition=bottom;verticalAlign=top;align=center;html=1;fontSize=12;fontStyle=0;aspect=fixed;shape=mxgraph.aws4.resourceIcon;resIcon=mxgraph.aws4.secrets_manager;" parent="tfIvSZz7BxdLT6BHfepm-2" vertex="1">
          <mxGeometry x="443" y="360" width="60" height="60" as="geometry" />
        </mxCell>
        <mxCell id="_2y4NVglLgokF5ldObjw-1" value="glue-data-access-policy" style="sketch=0;outlineConnect=0;fontColor=#232F3E;gradientColor=none;fillColor=#BF0816;strokeColor=none;dashed=0;verticalLabelPosition=bottom;verticalAlign=top;align=center;html=1;fontSize=12;fontStyle=0;aspect=fixed;pointerEvents=1;shape=mxgraph.aws4.role;" vertex="1" parent="tfIvSZz7BxdLT6BHfepm-2">
          <mxGeometry x="560" y="460" width="47.86" height="27" as="geometry" />
        </mxCell>
        <mxCell id="_2y4NVglLgokF5ldObjw-2" value="glue-secrets-manager-poicy" style="sketch=0;outlineConnect=0;fontColor=#232F3E;gradientColor=none;fillColor=#BF0816;strokeColor=none;dashed=0;verticalLabelPosition=bottom;verticalAlign=top;align=center;html=1;fontSize=12;fontStyle=0;aspect=fixed;pointerEvents=1;shape=mxgraph.aws4.role;" vertex="1" parent="tfIvSZz7BxdLT6BHfepm-2">
          <mxGeometry x="400.00000000000006" y="310" width="53.18" height="30" as="geometry" />
        </mxCell>
      </root>
    </mxGraphModel>
  </diagram>
</mxfile>
